<?xml version="1.0" standalone="no"?>
<!DOCTYPE svg PUBLIC "-//W3C//DTD SVG 20010904//EN"
 "http://www.w3.org/TR/2001/REC-SVG-20010904/DTD/svg10.dtd">
<svg version="1.0" xmlns="http://www.w3.org/2000/svg"
 width="300.000000pt" height="129.000000pt" viewBox="0 0 300.000000 129.000000"
 preserveAspectRatio="xMidYMid meet">
<metadata>
Created by potrace 1.10, written by Peter Selinger 2001-2011
</metadata>
<g transform="translate(0.000000,129.000000) scale(0.050000,-0.050000)"
fill="#00ff00" stroke="none">
<path d="M2460 2555 c-86 -45 -99 -103 -100 -420 l0 -295 -289 0 c-340 0 -322
16 -271 -243 22 -114 40 -209 40 -210 0 -2 28 -10 62 -17 34 -8 96 -45 138
-82 l75 -69 71 71 c39 39 98 76 132 83 l62 12 0 138 0 137 565 0 c722 0 798
-19 869 -221 26 -74 44 -96 66 -88 16 7 59 17 94 23 72 12 70 8 116 242 49
247 127 224 -759 224 l-771 0 0 287 c0 370 -17 353 342 353 310 0 358 -17 358
-128 l0 -66 -135 -12 c-130 -11 -260 -45 -241 -64 5 -5 39 0 77 10 85 25 368
26 450 3 l60 -18 -13 139 c-21 228 -15 225 -524 231 -315 4 -437 -1 -474 -20z"/>
<path d="M2153 2267 c-28 -29 -10 -47 47 -47 40 0 60 10 60 30 0 30 -80 43
-107 17z"/>
<path d="M3580 2086 l0 -186 140 0 140 0 0 186 0 186 -140 0 -140 0 0 -186z"/>
<path d="M2629 2206 c-20 -20 -25 -38 -12 -51 25 -25 103 0 103 34 0 42 -56
53 -91 17z"/>
<path d="M3974 2185 c-43 -48 -70 -185 -37 -185 39 0 86 95 79 161 -6 63 -6
63 -42 24z"/>
<path d="M1934 2188 c-30 -30 -14 -103 25 -114 53 -13 107 30 98 77 -7 39 -94
65 -123 37z"/>
<path d="M3050 2180 c-26 -11 18 -17 130 -17 112 0 156 6 130 17 -22 9 -80 17
-130 17 -49 0 -108 -8 -130 -17z"/>
<path d="M2127 2129 c-28 -72 42 -126 104 -80 31 23 35 36 17 65 -30 49 -105
58 -121 15z"/>
<path d="M3400 2113 c-114 -50 -336 -53 -447 -6 -103 44 -113 42 -113 -17 0
-43 9 -50 65 -50 62 0 190 -62 218 -105 8 -13 30 -8 59 12 57 40 190 42 258 3
74 -42 80 -38 79 55 -3 144 -14 155 -119 108z"/>
<path d="M2664 2076 c-66 -66 -17 -125 62 -76 52 32 54 37 24 67 -39 39 -54
41 -86 9z"/>
<path d="M2004 1996 c-33 -33 -30 -71 9 -92 71 -40 154 30 105 89 -28 33 -82
35 -114 3z"/>
<path d="M3995 1976 c-94 -55 -95 -76 -4 -76 75 0 229 67 229 100 0 36 -149
20 -225 -24z"/>
<path d="M1820 1959 c0 -49 50 -72 89 -40 40 34 16 81 -41 81 -35 0 -48 -11
-48 -41z"/>
<path d="M2220 1950 c-14 -17 -20 -36 -14 -43 21 -20 74 10 74 42 0 40 -28 40
-60 1z"/>
<path d="M0 1520 c0 -26 13 -40 38 -40 103 0 102 2 102 -410 0 -412 1 -410
-102 -410 -25 0 -38 -14 -38 -40 0 -38 13 -40 230 -40 217 0 230 2 230 40 0
28 -13 40 -46 40 -78 0 -94 37 -94 214 0 164 1 166 50 166 68 0 130 -67 130
-140 0 -47 9 -60 40 -60 38 0 40 13 40 240 0 227 -2 240 -40 240 -28 0 -40
-13 -40 -46 0 -74 -55 -134 -122 -134 l-60 0 6 165 6 165 140 -3 c159 -4 230
-56 230 -168 0 -50 8 -59 50 -59 49 0 50 3 50 160 l0 160 -400 0 c-387 0 -400
-1 -400 -40z"/>
<path d="M2460 1520 c0 -26 13 -40 38 -40 91 0 102 -18 102 -166 l0 -141 -45
42 c-192 180 -403 25 -403 -295 0 -311 220 -480 390 -298 l58 62 0 -52 c0 -51
2 -52 140 -52 127 0 140 4 140 40 0 28 -13 40 -46 40 -89 0 -94 23 -94 474 l0
426 -140 0 c-127 0 -140 -4 -140 -40z m81 -391 c119 -126 54 -459 -90 -459
-92 0 -139 83 -139 245 1 238 110 340 229 214z"/>
<path d="M2940 1520 c0 -31 13 -40 59 -40 88 0 95 -33 92 -420 -2 -383 -6
-400 -92 -400 -46 0 -59 -9 -59 -40 0 -57 587 -61 700 -5 168 85 166 369 -4
445 l-76 33 75 49 c169 109 129 342 -69 397 -151 41 -626 27 -626 -19z m599
-113 c107 -136 27 -266 -164 -267 l-115 0 0 160 0 160 119 0 c104 0 123 -6
160 -53z m8 -408 c44 -35 53 -58 53 -140 0 -143 -42 -179 -210 -179 l-130 0 0
180 0 180 117 0 c89 0 131 -10 170 -41z"/>
<path d="M5200 1521 c0 -27 16 -40 55 -45 l55 -6 0 -400 0 -400 -90 0 -90 0
-10 250 c-13 321 -34 360 -194 360 -56 0 -86 -16 -139 -71 l-67 -72 0 62 0 61
-130 0 c-117 0 -130 -4 -130 -40 0 -29 13 -40 50 -40 91 0 106 -504 15 -516
-29 -4 -45 -21 -45 -45 0 -36 15 -39 170 -39 155 0 170 3 170 39 0 24 -16 41
-45 45 -68 9 -79 380 -14 462 47 61 157 75 197 26 48 -58 20 -481 -33 -488
-29 -5 -45 -21 -45 -46 0 -37 14 -39 333 -33 337 5 424 27 299 74 -74 28 -70
116 8 191 33 31 63 53 67 49 93 -106 134 -239 73 -239 -27 0 -40 -13 -40 -40
0 -37 13 -40 190 -40 177 0 190 3 190 40 0 25 -14 40 -35 41 -59 1 -265 259
-265 333 0 31 174 186 210 186 17 0 30 18 30 40 0 37 -13 40 -181 40 -162 0
-181 -4 -175 -35 4 -21 28 -38 61 -41 81 -10 68 -42 -65 -160 l-120 -107 0
322 0 321 -130 0 c-115 0 -130 -4 -130 -39z"/>
<path d="M975 1271 c-355 -126 -265 -711 109 -711 207 0 321 132 320 369 -2
274 -193 427 -429 342z m204 -110 c88 -88 83 -397 -7 -474 -147 -127 -284 53
-243 322 25 169 154 248 250 152z"/>
<path d="M1683 1281 c-258 -64 -316 -522 -85 -676 154 -102 390 -40 464 123
139 305 -81 626 -379 553z m195 -132 c83 -107 78 -374 -9 -462 -147 -147 -294
76 -240 363 27 146 168 201 249 99z"/>
<path d="M3920 1254 c-100 -50 -124 -189 -40 -234 86 -46 147 53 76 124 -50
50 -22 75 88 76 211 1 180 -209 -41 -273 -145 -42 -203 -101 -203 -207 0 -167
183 -242 316 -130 l60 50 32 -50 c42 -63 149 -69 201 -11 49 54 68 221 25 221
-22 0 -33 -23 -38 -75 -4 -52 -17 -77 -41 -81 -32 -6 -35 15 -35 226 0 257
-24 337 -112 371 -71 27 -229 23 -288 -7z m260 -401 c0 -180 -202 -286 -215
-113 -7 87 5 104 105 156 108 57 110 56 110 -43z"/>
<path d="M1401 267 c-82 -105 -32 -238 99 -259 154 -25 247 162 134 269 -68
63 -179 59 -233 -10z m182 0 c41 -37 48 -128 16 -188 -28 -53 -130 -53 -158 0
-70 129 43 278 142 188z"/>
<path d="M1740 300 c0 -11 9 -20 20 -20 39 0 24 -236 -15 -246 -19 -5 10 -9
65 -9 55 0 84 4 65 9 -23 6 -35 29 -35 67 0 62 33 80 53 29 20 -54 47 -32 47
40 0 72 -27 94 -47 40 -19 -48 -53 -35 -53 20 0 66 117 75 134 10 16 -61 46
-48 46 20 l0 60 -140 0 c-80 0 -140 -9 -140 -20z"/>
<path d="M2260 300 c0 -11 14 -20 30 -20 48 0 43 -234 -5 -246 -19 -5 30 -10
110 -12 l145 -2 -2 65 -1 65 -20 -55 c-44 -120 -137 -76 -137 65 0 67 9 120
20 120 11 0 20 9 20 20 0 11 -36 20 -80 20 -44 0 -80 -9 -80 -20z"/>
<path d="M2620 300 c0 -11 9 -20 20 -20 30 0 25 -235 -5 -247 -14 -5 16 -10
65 -11 70 -1 82 4 55 20 -47 27 -52 238 -5 238 17 0 30 9 30 20 0 11 -36 20
-80 20 -44 0 -80 -9 -80 -20z"/>
<path d="M2860 300 c0 -11 9 -20 20 -20 30 0 25 -235 -5 -247 -14 -5 11 -10
55 -11 56 -1 71 4 51 17 -31 19 -54 201 -26 201 9 0 45 -49 81 -110 96 -160
144 -154 144 20 0 73 9 130 20 130 11 0 20 9 20 20 0 11 -31 20 -70 20 -72 0
-94 -27 -40 -47 33 -13 43 -153 11 -153 -10 0 -44 45 -75 100 -53 95 -186 152
-186 80z"/>
<path d="M3282 268 c-47 -59 -52 -100 -22 -177 38 -100 193 -119 241 -29 31
58 5 75 -33 22 -64 -92 -148 -41 -148 89 0 65 10 91 40 107 48 26 120 -5 120
-51 0 -16 9 -29 20 -29 11 0 20 26 20 57 0 84 -174 92 -238 11z"/>
<path d="M3620 280 c-62 -62 -55 -186 15 -240 106 -84 265 -10 265 123 0 132
-187 210 -280 117z m180 -20 c74 -74 37 -220 -56 -220 -74 0 -104 33 -104 117
0 124 85 178 160 103z"/>
<path d="M3940 300 c0 -11 9 -20 20 -20 30 0 25 -235 -5 -247 -14 -5 40 -11
120 -11 l145 -2 0 60 c0 70 -34 81 -44 15 -5 -34 -21 -46 -71 -51 l-65 -7 0
122 c0 94 7 121 30 121 17 0 30 9 30 20 0 11 -36 20 -80 20 -44 0 -80 -9 -80
-20z"/>
<path d="M4285 292 c26 -20 35 -55 35 -138 0 -89 -7 -113 -35 -120 -19 -5 6
-9 55 -9 50 0 74 4 55 9 -27 7 -35 30 -35 109 0 117 18 113 94 -24 83 -147
126 -136 126 31 0 102 6 130 30 130 17 0 30 9 30 20 0 11 -31 20 -70 20 -38 0
-70 -9 -70 -20 0 -11 9 -20 20 -20 11 0 20 -43 19 -95 l0 -95 -71 115 c-66
107 -77 115 -145 114 -65 0 -69 -3 -38 -27z"/>
</g>
</svg>
